<svg width="189" height="252" viewBox="0 0 189 252" fill="none" xmlns="http://www.w3.org/2000/svg">
<circle cx="153" cy="112" r="12" fill="white"/>
<mask id="path-2-outside-1_268_45" maskUnits="userSpaceOnUse" x="39" y="106" width="118" height="118" fill="black">
<rect fill="white" x="39" y="106" width="118" height="118"/>
<path d="M59.4 204V126.72H99.6C105.92 126.72 111.08 127.88 115.08 130.2C119.16 132.52 122.2 135.76 124.2 139.92C126.2 144 127.2 148.76 127.2 154.2C127.2 159.4 125.88 164 123.24 168C120.68 171.92 117.24 174.92 112.92 177C113.8 177.72 114.56 178.6 115.2 179.64C115.84 180.6 116.56 181.96 117.36 183.72L126.24 204H102.72L94.56 185.4C93.92 183.96 93.12 182.96 92.16 182.4C91.28 181.76 90 181.44 88.32 181.44H81.96V204H59.4ZM81.96 164.16H93.84C97.12 164.16 99.64 163.32 101.4 161.64C103.24 159.88 104.16 157.4 104.16 154.2C104.16 147.4 100.96 144 94.56 144H81.96V164.16Z"/>
</mask>
<path d="M59.4 204H39.4V224H59.4V204ZM59.4 126.72V106.72H39.4V126.72H59.4ZM115.08 130.2L105.046 147.501L105.12 147.544L105.194 147.586L115.08 130.2ZM124.2 139.92L106.175 148.586L106.208 148.655L106.242 148.723L124.2 139.92ZM123.24 168L106.548 156.983L106.521 157.024L106.495 157.064L123.24 168ZM112.92 177L104.244 158.98L75.9576 172.599L100.255 192.479L112.92 177ZM115.2 179.64L98.1669 190.122L98.3574 190.432L98.559 190.734L115.2 179.64ZM117.36 183.72L135.681 175.698L135.625 175.571L135.567 175.444L117.36 183.72ZM126.24 204V224H156.831L144.561 195.978L126.24 204ZM102.72 204L84.405 212.035L89.6542 224H102.72V204ZM94.56 185.4L112.875 177.365L112.856 177.321L112.836 177.277L94.56 185.4ZM92.16 182.4L80.3966 198.575L81.2118 199.168L82.0826 199.676L92.16 182.4ZM81.96 181.44V161.44H61.96V181.44H81.96ZM81.96 204V224H101.96V204H81.96ZM81.96 164.16H61.96V184.16H81.96V164.16ZM101.4 161.64L115.21 176.107L115.217 176.1L115.224 176.093L101.4 161.64ZM81.96 144V124H61.96V144H81.96ZM79.4 204V126.72H39.4V204H79.4ZM59.4 146.72H99.6V106.72H59.4V146.72ZM99.6 146.72C103.635 146.72 105.012 147.481 105.046 147.501L125.114 112.899C117.148 108.279 108.205 106.72 99.6 106.72V146.72ZM105.194 147.586C105.801 147.931 105.969 148.158 106.175 148.586L142.225 131.254C138.431 123.362 132.519 117.109 124.966 112.814L105.194 147.586ZM106.242 148.723C106.659 149.574 107.2 151.216 107.2 154.2H147.2C147.2 146.304 145.741 138.426 142.158 131.117L106.242 148.723ZM107.2 154.2C107.2 155.831 106.846 156.531 106.548 156.983L139.932 179.017C144.914 171.469 147.2 162.969 147.2 154.2H107.2ZM106.495 157.064C105.978 157.855 105.362 158.442 104.244 158.98L121.596 195.02C129.118 191.398 135.382 185.985 139.985 178.936L106.495 157.064ZM100.255 192.479C99.2875 191.687 98.6079 190.839 98.1669 190.122L132.233 169.158C130.512 166.361 128.312 163.753 125.585 161.521L100.255 192.479ZM98.559 190.734C98.4055 190.504 98.4028 190.471 98.5442 190.738C98.6759 190.986 98.879 191.394 99.1527 191.996L135.567 175.444C134.576 173.264 133.343 170.799 131.841 168.546L98.559 190.734ZM99.0393 191.742L107.919 212.022L144.561 195.978L135.681 175.698L99.0393 191.742ZM126.24 184H102.72V224H126.24V184ZM121.035 195.965L112.875 177.365L76.245 193.435L84.405 212.035L121.035 195.965ZM112.836 177.277C111.18 173.551 108.055 168.518 102.237 165.124L82.0826 199.676C78.185 197.402 76.6599 194.369 76.2838 193.523L112.836 177.277ZM103.923 166.225C98.22 162.077 92.0741 161.44 88.32 161.44V201.44C87.9463 201.44 86.9983 201.41 85.6893 201.083C84.3547 200.749 82.4226 200.048 80.3966 198.575L103.923 166.225ZM88.32 161.44H81.96V201.44H88.32V161.44ZM61.96 181.44V204H101.96V181.44H61.96ZM81.96 184H59.4V224H81.96V184ZM81.96 184.16H93.84V144.16H81.96V184.16ZM93.84 184.16C100.434 184.16 108.588 182.427 115.21 176.107L87.5905 147.173C90.6917 144.213 93.806 144.16 93.84 144.16V184.16ZM115.224 176.093C121.969 169.642 124.16 161.37 124.16 154.2H84.16C84.16 153.909 84.1999 152.902 84.7187 151.504C85.27 150.018 86.2209 148.483 87.5755 147.187L115.224 176.093ZM124.16 154.2C124.16 148.009 122.726 139.645 116.324 132.843C109.707 125.812 101.163 124 94.56 124V164C94.3566 164 90.6128 163.888 87.196 160.257C83.9935 156.855 84.16 153.591 84.16 154.2H124.16ZM94.56 124H81.96V164H94.56V124ZM61.96 144V164.16H101.96V144H61.96Z" fill="white" mask="url(#path-2-outside-1_268_45)"/>
<rect x="48" y="10" width="131" height="204" stroke="white" stroke-width="20"/>
<path d="M38 210.699C38 214.665 32.8508 216.213 30.6635 212.906L1.10421 168.206C-0.654278 165.547 1.25264 162 4.44066 162L34 162C36.2091 162 38 163.791 38 166L38 210.699Z" fill="white"/>
<path d="M38 224L17.5 193L7.5 168L17.5 162L38 162L38 224Z" fill="white"/>
</svg>
